<?xml version="1.0" encoding="UTF-8" standalone="no"?><!DOCTYPE svg PUBLIC "-//W3C//DTD SVG 1.1//EN" "http://www.w3.org/Graphics/SVG/1.1/DTD/svg11.dtd"><svg width="100%" height="100%" viewBox="0 0 114 114" version="1.1" xmlns="http://www.w3.org/2000/svg" xmlns:xlink="http://www.w3.org/1999/xlink" xml:space="preserve" xmlns:serif="http://www.serif.com/" style="fill-rule:evenodd;clip-rule:evenodd;stroke-linejoin:round;stroke-miterlimit:1.41421;"><rect id="linkedin" x="0" y="0" width="114" height="114" style="fill:none;"/><clipPath id="_clip1"><rect x="0" y="0" width="114" height="114"/></clipPath><g clip-path="url(#_clip1)"><path id="in" d="M101.333,0c6.949,0 12.667,5.718 12.667,12.667l0,88.666c0,6.949 -5.718,12.667 -12.667,12.667l-88.666,0c-6.949,0 -12.667,-5.718 -12.667,-12.667l0,-88.666c0,-6.949 5.718,-12.667 12.667,-12.667l88.666,0m-3.166,98.167l0,-33.567c0,-11.326 -9.321,-20.647 -20.647,-20.647c-5.383,0 -11.653,3.294 -14.693,8.234l0,-7.03l-17.67,0l0,53.01l17.67,0l0,-31.224c0,-4.876 3.926,-8.866 8.803,-8.866c4.864,0 8.867,4.002 8.867,8.866l0,31.224l17.67,0m-73.594,-62.954c5.837,0 10.64,-4.803 10.64,-10.64c0,-5.89 -4.75,-10.703 -10.64,-10.703c-5.871,0 -10.703,4.832 -10.703,10.703c0,5.89 4.813,10.64 10.703,10.64m8.804,62.954l0,-53.01l-17.544,0l0,53.01l17.544,0Z" style="fill:#44d18d;fill-rule:nonzero;"/></g></svg>