<?xml version="1.0" encoding="UTF-8" standalone="no"?><!DOCTYPE svg PUBLIC "-//W3C//DTD SVG 1.1//EN" "http://www.w3.org/Graphics/SVG/1.1/DTD/svg11.dtd"><svg width="100%" height="100%" viewBox="0 0 114 114" version="1.1" xmlns="http://www.w3.org/2000/svg" xmlns:xlink="http://www.w3.org/1999/xlink" xml:space="preserve" xmlns:serif="http://www.serif.com/" style="fill-rule:evenodd;clip-rule:evenodd;stroke-linejoin:round;stroke-miterlimit:1.41421;"><rect id="twitter" x="0" y="0" width="114" height="114" style="fill:none;"/><path id="Twitter-Box" serif:id="Twitter Box" d="M12.667,0l88.666,0c6.949,0 12.667,5.718 12.667,12.667l0,88.666c0,6.949 -5.718,12.667 -12.667,12.667l-88.666,0c-6.949,0 -12.667,-5.718 -12.667,-12.667l0,-88.666c0,-6.949 5.718,-12.667 12.667,-12.667m80.496,40.09c3.04,-2.533 6.587,-5.573 8.17,-8.93c-2.596,1.33 -5.7,2.153 -9.12,2.597c3.167,-2.28 5.764,-5.257 7.094,-9.31c-3.294,1.773 -6.65,3.293 -10.83,4.053c-9.817,-11.843 -33.314,-2.217 -29.134,15.517c-16.53,-1.014 -26.6,-8.487 -34.96,-17.67c-4.75,7.726 -0.633,19.443 5.004,22.673c-2.914,-0.19 -5.13,-1.077 -7.22,-2.09c0.253,9.753 5.636,14.44 13.173,16.973c-2.28,0.444 -4.813,0.57 -7.22,0.19c2.343,6.777 7.22,11.02 15.58,11.907c-5.7,4.813 -16.213,8.17 -24.7,6.84c7.283,4.623 15.58,8.297 27.107,7.79c27.93,-1.267 46.613,-21.28 47.056,-50.54Z" style="fill:#44d18d;fill-rule:nonzero;"/></svg>