<?xml version="1.0" encoding="UTF-8" standalone="no"?><!DOCTYPE svg PUBLIC "-//W3C//DTD SVG 1.1//EN" "http://www.w3.org/Graphics/SVG/1.1/DTD/svg11.dtd"><svg width="100%" height="100%" viewBox="0 0 114 114" version="1.1" xmlns="http://www.w3.org/2000/svg" xmlns:xlink="http://www.w3.org/1999/xlink" xml:space="preserve" xmlns:serif="http://www.serif.com/" style="fill-rule:evenodd;clip-rule:evenodd;stroke-linejoin:round;stroke-miterlimit:1.41421;"><rect id="github" x="0" y="0" width="114" height="114" style="fill:none;"/><clipPath id="_clip1"><rect x="0" y="0" width="114" height="114"/></clipPath><g clip-path="url(#_clip1)"><path id="github1" serif:id="github" d="M12.667,0l88.666,0c6.949,0 12.667,5.718 12.667,12.667l0,88.666c0,6.949 -5.718,12.667 -12.667,12.667l-28.12,0c-2.026,-0.443 -2.09,-4.307 -2.09,-5.637l0.064,-15.643c0,-5.32 -1.837,-8.803 -3.864,-10.577c12.73,-1.393 26.03,-6.143 26.03,-28.12c0,-6.206 -2.216,-11.336 -5.826,-15.326c0.57,-1.394 2.533,-7.22 -0.57,-15.074c0,0 -4.814,-1.456 -15.707,5.89c-4.56,-1.266 -9.373,-1.9 -14.25,-1.963c-4.813,0.063 -9.753,0.697 -14.25,1.963c-10.893,-7.346 -15.707,-5.89 -15.707,-5.89c-3.103,7.854 -1.14,13.68 -0.57,15.074c-3.61,3.99 -5.826,9.12 -5.826,15.326c0,21.977 13.3,26.727 25.966,28.31c-1.646,1.267 -3.103,3.8 -3.61,7.474c-3.293,1.456 -11.526,3.99 -16.593,-4.75c0,0 -3.04,-5.447 -8.74,-5.89c0,0 -5.573,0 -0.38,3.483c0,0 3.737,1.773 6.333,8.36c0,0 3.294,11.083 19.19,7.663l0.064,9.69c0,1.33 -0.127,5.194 -2.154,5.637l-28.056,0c-6.949,0 -12.667,-5.718 -12.667,-12.667l0,-88.666c0,-6.949 5.718,-12.667 12.667,-12.667Z" style="fill:#44d18d;fill-rule:nonzero;"/></g></svg>